<mxfile host="app.diagrams.net" modified="2023-06-01T17:54:05.796Z" agent="Mozilla/5.0 (Windows NT 10.0; Win64; x64) AppleWebKit/537.36 (KHTML, like Gecko) Chrome/113.0.0.0 Safari/537.36" version="21.3.6" etag="zRxvdwTMDysflL77jZEE" type="github">
  <diagram name="Страница 1" id="pCdE50GhJvi5QnB03yYH">
    <mxGraphModel>
      <root>
        <mxCell id="0" />
        <mxCell id="1" parent="0" />
      </root>
    </mxGraphModel>
  </diagram>
</mxfile>
